<svg xmlns="http://www.w3.org/2000/svg" xmlns:xlink="http://www.w3.org/1999/xlink" width="48" height="42" viewBox="0 0 48 42"><defs><path id="tgvra" d="M1651.973 151.238l-2.12 12.721a1.384 1.384 0 0 1-1.369 1.16h-24.168l-1.542-13.881zm-21.959-5.552h5.553v2.776h-5.553zm8.329-2.777h8.329v5.553h-8.33zm6.94 33.315a1.388 1.388 0 1 1 0-2.776 1.388 1.388 0 0 1 0 2.776zm-15.269-1.388a1.39 1.39 0 0 1-1.388 1.388 1.39 1.39 0 0 1 0-2.778 1.39 1.39 0 0 1 1.388 1.39zm-12.493-34.703a1.39 1.39 0 0 1 1.389 1.388c0 .12-.176-1.505 2.645 23.886a4.17 4.17 0 0 0-2.645 3.876 4.168 4.168 0 0 0 4.164 4.163h1.626a4.17 4.17 0 0 0 3.926 5.554 4.17 4.17 0 0 0 3.926-5.554h8.806a4.17 4.17 0 0 0 3.925 5.554 4.17 4.17 0 0 0 4.165-4.164 4.17 4.17 0 0 0-4.165-4.165h-22.21a1.39 1.39 0 0 1-1.387-1.388 1.39 1.39 0 0 1 1.388-1.388h25.41a4.15 4.15 0 0 0 4.108-3.48l2.39-14.337a1.388 1.388 0 0 0-1.37-1.616h-4.164v-6.94c0-.767-.622-1.389-1.388-1.389h-11.105c-.767 0-1.388.622-1.388 1.388v1.388h-6.94c-.767 0-1.389.622-1.389 1.388v4.165h-4.773l-.78-7.025a4.17 4.17 0 0 0-4.164-4.08h-8.513a1.388 1.388 0 1 0 0 2.776z"/><path id="tgvrb" d="M1628.626 162.343c.767 0 1.388-.622 1.388-1.388v-5.553a1.388 1.388 0 1 0-2.776 0v5.553c0 .766.622 1.388 1.388 1.388z"/><path id="tgvrc" d="M1636.955 162.343c.767 0 1.388-.622 1.388-1.388v-5.553a1.388 1.388 0 1 0-2.776 0v5.553c0 .766.621 1.388 1.388 1.388z"/><path id="tgvrd" d="M1645.283 162.343c.767 0 1.389-.622 1.389-1.388v-5.553a1.388 1.388 0 1 0-2.777 0v5.553c0 .766.622 1.388 1.388 1.388z"/></defs><g><g transform="translate(-1607 -137)"><g><use xlink:href="#tgvra"/></g><g><use xlink:href="#tgvrb"/></g><g><use xlink:href="#tgvrc"/></g><g><use xlink:href="#tgvrd"/></g></g></g></svg>