<svg xmlns="http://www.w3.org/2000/svg" width="122.156" height="28.879" viewBox="0 0 122.156 28.879"><g transform="translate(-19170 2697)"><path d="M-796.24-167.734l5.175,5.213v-5.213h3.58v8.838h-4.432l-5.168-5.22v5.22h-3.58v-8.838Zm9.306,8.838,5.367-8.845h4.547l5.361,8.845h-4.349l-.6-1.134h-5.38l-.6,1.134Zm8.966-3.727-1.326-2.517-1.326,2.517Zm19.918-3.241a3.916,3.916,0,0,1,.1.813,2.3,2.3,0,0,1-1.441,2.216,1.786,1.786,0,0,1,1.287,1.659,5.98,5.98,0,0,0,.208,1.63,1.267,1.267,0,0,0,.439.65h-4.112a.693.693,0,0,1-.234-.435,3.65,3.65,0,0,1-.048-.612,3.986,3.986,0,0,0-.051-.644.649.649,0,0,0-.455-.57,3.939,3.939,0,0,0-1.089-.115H-767.5v2.376h-3.58v-8.838h9.523a3.84,3.84,0,0,1,3.036.986A2.142,2.142,0,0,1-758.051-165.863Zm-3.663.954a1.726,1.726,0,0,0-1.089-.237h-4.7v1.281h4.7a2.1,2.1,0,0,0,.772-.112.792.792,0,0,0,.371-.263.5.5,0,0,0,.1-.266A.52.52,0,0,0-761.714-164.909Zm15.281,5.975a15.314,15.314,0,0,1-3.631.346q-.916,0-1.851-.064a7.037,7.037,0,0,1-3.3-.916,3.216,3.216,0,0,1-1.441-2.914v-5.252h3.58v4.861a1.5,1.5,0,0,0,1.415,1.556,9.337,9.337,0,0,0,1.595.1q.365,0,.781-.016a5.57,5.57,0,0,0,.81-.09,2.377,2.377,0,0,0,.714-.25,1.36,1.36,0,0,0,.512-.49,1.526,1.526,0,0,0,.192-.807v-4.867h3.58v5.252A3.411,3.411,0,0,1-746.433-158.934Zm4.361-6.1v-2.7h13.341v2.7h-4.88v6.135h-3.58v-6.135ZM-719.348-168a8.377,8.377,0,0,1,3.727.9,4.1,4.1,0,0,1,2.107,3.791,4.1,4.1,0,0,1-2.107,3.791,8.376,8.376,0,0,1-3.727.9q-.929.038-1.569.038t-1.569-.038a8.376,8.376,0,0,1-3.727-.9,4.1,4.1,0,0,1-2.107-3.791,4.1,4.1,0,0,1,2.107-3.791,8.376,8.376,0,0,1,3.727-.9q.935-.038,1.569-.038T-719.348-168Zm-1.569,2.581a5.73,5.73,0,0,0-2.908.519,1.318,1.318,0,0,0-.423.474,2.358,2.358,0,0,0-.256,1.114,3,3,0,0,0,.054.535,2,2,0,0,0,.2.576,1.382,1.382,0,0,0,.423.477,2.55,2.55,0,0,0,.957.352,8.542,8.542,0,0,0,1.156.134q.564.026.794.026a5.809,5.809,0,0,0,2.914-.512,1.417,1.417,0,0,0,.416-.474,2.357,2.357,0,0,0,.256-1.114,3,3,0,0,0-.054-.535,2.037,2.037,0,0,0-.2-.58A1.34,1.34,0,0,0-718-164.9a2.613,2.613,0,0,0-.964-.352,8.913,8.913,0,0,0-1.156-.138Q-720.687-165.422-720.917-165.422Z" transform="translate(20005.67 -2520.308)"/><g transform="translate(19170 -2697)"><g transform="translate(-120.15 -175.668)" fill="none"><path d="M131.583,175.983A14.444,14.444,0,0,1,149,189.478c.141,3.292-.974,9.246-6.131,11.9a15.6,15.6,0,0,1-3.2,1.285,14.1,14.1,0,0,1-4.831.381,16.3,16.3,0,0,1-3.125-.669,12.424,12.424,0,0,1-2.9-1.591,11.711,11.711,0,0,1-2.063-2.032,11.983,11.983,0,0,1-1.621-11.66,9.934,9.934,0,0,1,3.289-4.144,9.385,9.385,0,0,1,4.631-1.733,8.527,8.527,0,0,1,3.936.519,7.543,7.543,0,0,1,4.6,6.122,9.075,9.075,0,0,1-.151,2.664,6.2,6.2,0,0,1-4.133,4.632,5.987,5.987,0,0,1-3.639.085,4.872,4.872,0,0,1-3.22-3.954,5.117,5.117,0,0,1,.23-2.363,3.992,3.992,0,0,1,4.611-2.539,2.923,2.923,0,0,1,2.146,2.3c.083.433.15.986.638,1.148.247.153.484-.066.627-.256.23-.285.126-.682.073-1.011a4.132,4.132,0,0,0-2.454-3.154,4.684,4.684,0,0,0-2.523-.4,4.951,4.951,0,0,0-3.874,2.6,6.461,6.461,0,0,0-.712,4.242,5.866,5.866,0,0,0,3.246,4.241,7.16,7.16,0,0,0,3.894.652,6.335,6.335,0,0,0,2.208-.681,6.915,6.915,0,0,0,2.077-1.487,8.58,8.58,0,0,0,1.6-2.441,9.049,9.049,0,0,0,.526-5.159,8.384,8.384,0,0,0-5.462-6.472,10.07,10.07,0,0,0-8.9.87,9.611,9.611,0,0,0-2.052,1.6A11.713,11.713,0,0,0,124.284,186a8.5,8.5,0,0,0-.635,1.557,14.628,14.628,0,0,0-.524,2.467,12.7,12.7,0,0,0,2.24,9.052,12.259,12.259,0,0,0,1.6,1.848,12.674,12.674,0,0,0,3.13,2.133,13.682,13.682,0,0,0,5.947,1.345,12.063,12.063,0,0,1-4.873-.253,14.115,14.115,0,0,1-5.072-2.35,14.565,14.565,0,0,1-3.134-3.081,14.377,14.377,0,0,1-2.427-5.217,15.3,15.3,0,0,1-.357-4.7,14.765,14.765,0,0,1,1.717-5.625,15.17,15.17,0,0,1,3.506-4.222A14.98,14.98,0,0,1,131.583,175.983Z" stroke="none"/><path d="M 134.5474243164062 177.6678619384766 C 133.6855316162109 177.6678619384766 132.8308715820312 177.758544921875 132.0071716308594 177.9374084472656 L 131.9993133544922 177.9391021728516 L 131.9914245605469 177.9407501220703 C 131.7996826171875 177.9807739257812 131.6080322265625 178.0262451171875 131.4164733886719 178.0771179199219 C 132.1881713867188 177.9262542724609 132.9788970947266 177.8493499755859 133.7783050537109 177.8493499755859 C 135.2469787597656 177.8493499755859 136.6645050048828 178.1108703613281 137.9923553466797 178.6266937255859 C 139.7016754150391 179.2071380615234 141.241455078125 180.2744445800781 142.4482116699219 181.7158966064453 C 143.634033203125 183.1322937011719 144.4237976074219 184.8184509277344 144.7341003417969 186.5953521728516 C 145.1534881591797 188.5425567626953 144.9382629394531 190.7061157226562 144.1108093261719 192.8561859130859 L 144.0820617675781 192.930908203125 L 144.0474243164062 193.0030670166016 C 143.5864868164062 193.9636993408203 142.98876953125 195.0710144042969 142.050537109375 196.0002746582031 L 142.0483093261719 196.0024871826172 L 142.0460815429688 196.0046844482422 C 141.1549072265625 196.8818054199219 140.3209075927734 197.4771270751953 139.4279937744141 197.8726348876953 C 138.5484313964844 198.3242340087891 137.6032104492188 198.6129760742188 136.6169128417969 198.7312927246094 C 136.2658538818359 198.7805328369141 135.9044952392578 198.8054809570312 135.5422973632812 198.8054809570312 C 134.2772064208984 198.8054809570312 132.9683227539062 198.5088500976562 131.6519775390625 197.923828125 L 131.6357879638672 197.9166259765625 L 131.6197204589844 197.9091339111328 C 129.3548126220703 196.8540649414062 127.6796264648438 194.6666107177734 127.2478942871094 192.2004089355469 L 127.2413940429688 192.1632232666016 L 127.2362976074219 192.1258239746094 C 126.9517669677734 190.0397491455078 127.2840728759766 188.1351776123047 128.1973419189453 186.6140747070312 C 128.9279632568359 185.2953796386719 130.0487365722656 184.2569274902344 131.3479309082031 183.6388092041016 C 130.7538299560547 183.867431640625 130.16259765625 184.1824493408203 129.5899810791016 184.5778656005859 C 128.4386291503906 185.4286193847656 127.5135803222656 186.5948944091797 126.9855804443359 187.860107421875 C 126.6202545166016 188.7413787841797 126.4004974365234 189.7811431884766 126.3138275146484 191.0384216308594 C 126.1839141845703 193.2575073242188 126.9136657714844 195.6078338623047 128.3180541992188 197.498779296875 L 128.3388824462891 197.5228271484375 C 128.8859252929688 198.1548461914062 129.4026489257812 198.7518005371094 129.966796875 199.1452789306641 L 129.9906921386719 199.1619415283203 L 130.0140838623047 199.1792755126953 C 130.7243041992188 199.7060394287109 131.5209808349609 200.1459197998047 132.3829040527344 200.4873504638672 C 133.3424530029297 200.7817077636719 134.217529296875 200.9679412841797 135.0559539794922 201.0563049316406 L 135.0599975585938 201.0567321777344 L 135.0640258789062 201.0571746826172 C 135.4097442626953 201.0950317382812 135.7697448730469 201.1142272949219 136.1340484619141 201.1142272949219 C 137.0739440917969 201.1142272949219 138.0863800048828 200.9868469238281 139.1442108154297 200.7355804443359 C 140.1674346923828 200.4139556884766 141.0800323486328 200.1066741943359 141.8700256347656 199.6487426757812 L 141.9131774902344 199.6237335205078 L 141.95751953125 199.6009063720703 C 143.8136901855469 198.6452178955078 145.1979217529297 197.0688171386719 146.07177734375 194.9155120849609 C 147.0211486816406 192.5761108398438 147.0411682128906 190.3934478759766 147.0057373046875 189.5646057128906 C 146.9282989501953 187.7739105224609 146.4422149658203 185.9681549072266 145.6000061035156 184.3425598144531 C 144.7509613037109 182.7037963867188 143.5569152832031 181.2849884033203 142.14697265625 180.2395477294922 L 142.1305999755859 180.2274169921875 L 142.114501953125 180.2149353027344 C 139.9911041259766 178.5724334716797 137.3037261962891 177.6678619384766 134.5474243164062 177.6678619384766 M 134.4296264648438 188.2754669189453 C 133.6362457275391 188.2755432128906 132.8243865966797 188.840576171875 132.5813293457031 189.5618438720703 L 132.5563049316406 189.6361083984375 L 132.5255432128906 189.7081909179688 C 132.3881225585938 190.0301666259766 132.4174652099609 190.6172180175781 132.4468383789062 191.0745544433594 C 132.6132507324219 192.1098327636719 133.3450622558594 193.0244903564453 134.2491302490234 193.3228149414062 C 134.6348876953125 193.4277648925781 135.0250396728516 193.48095703125 135.409423828125 193.48095703125 C 135.8465118408203 193.48095703125 136.2568054199219 193.4120025634766 136.62890625 193.2760009765625 L 136.7092895507812 193.2466125488281 L 136.7919006347656 193.2241973876953 C 137.19873046875 193.1138458251953 137.6586151123047 192.7904510498047 138.1344451904297 192.4338531494141 C 138.3360137939453 192.2573547363281 138.5201873779297 192.0605926513672 138.6846160888672 191.8474578857422 C 138.5191040039062 191.8788604736328 138.3718566894531 191.8886108398438 138.2529449462891 191.8886108398438 C 137.9094543457031 191.8886108398438 137.5703735351562 191.8112945556641 137.2589263916016 191.6633148193359 C 136.6247100830078 191.3980712890625 136.1163024902344 190.9019775390625 135.8144989013672 190.2485046386719 C 135.6208038330078 189.8291168212891 135.5448455810547 189.4207000732422 135.4945678710938 189.1504516601562 C 135.4893035888672 189.1220855712891 135.4841156005859 189.0941162109375 135.4788360595703 189.0667114257812 L 135.4770660400391 189.0574951171875 L 135.4753723144531 189.0482788085938 C 135.4150238037109 188.7180938720703 135.1382751464844 188.3983001708984 134.8584442138672 188.3354034423828 L 134.8283843994141 188.3286437988281 L 134.7985534667969 188.3209686279297 C 134.6812133789062 188.2907562255859 134.5570983886719 188.2754669189453 134.4296264648438 188.2754669189453 M 134.5474243164062 175.6678619384766 C 137.6947784423828 175.6678619384766 140.8433990478516 176.7031860351562 143.3381805419922 178.6329956054688 C 146.7328033447266 181.1500244140625 148.822021484375 185.2729797363281 149.0038757324219 189.4782104492188 C 149.1445617675781 192.7704467773438 148.0297698974609 198.7239990234375 142.8730316162109 201.3790588378906 C 141.8757934570312 201.9571228027344 140.7732849121094 202.32080078125 139.677490234375 202.6643981933594 C 138.5194549560547 202.9443969726562 137.3267517089844 203.1142272949219 136.134033203125 203.1142272949219 C 135.7042541503906 203.1142272949219 135.2745056152344 203.0921783447266 134.8463134765625 203.0452880859375 C 133.7840118408203 202.9333190917969 132.7408294677734 202.6930847167969 131.7215576171875 202.3763122558594 C 130.6908416748047 201.9753112792969 129.7117767333984 201.4450988769531 128.8226776123047 200.7857055664062 C 128.0254516601562 200.2296752929688 127.3909301757812 199.483154296875 126.75927734375 198.75390625 C 125.0815734863281 196.5249633789062 124.1513366699219 193.7073974609375 124.31787109375 190.9109191894531 C 124.4068603515625 189.6093444824219 124.6365661621094 188.3039245605469 125.1380462646484 187.0942077636719 C 125.826171875 185.4452514648438 126.9889678955078 184.005859375 128.4273986816406 182.9502258300781 C 129.7940826416016 182.0008544921875 131.3865966796875 181.3366394042969 133.0585479736328 181.2170104980469 C 133.3554992675781 181.1987762451172 133.6551818847656 181.1878051757812 133.9552764892578 181.1878051757812 C 134.9938049316406 181.1878051757812 136.0378112792969 181.3191833496094 136.9948883056641 181.7357177734375 C 139.5339202880859 182.6841430664062 141.2709503173828 185.213623046875 141.5992279052734 187.8579406738281 C 141.6269836425781 188.7470397949219 141.6824798583984 189.6543273925781 141.447998046875 190.5223388671875 C 141.1589813232422 191.8631896972656 140.4345092773438 193.1025390625 139.389404296875 193.9925842285156 C 138.7558441162109 194.4692077636719 138.0916595458984 194.9439086914062 137.3154907226562 195.1544494628906 C 136.7057189941406 195.3773345947266 136.0581665039062 195.48095703125 135.409423828125 195.48095703125 C 134.8240966796875 195.48095703125 134.2378540039062 195.3966827392578 133.6768035888672 195.2396240234375 C 131.9522247314453 194.6969909667969 130.7004089355469 193.0527954101562 130.4563598632812 191.2860717773438 C 130.4046630859375 190.4945983886719 130.3683013916016 189.667724609375 130.6860504150391 188.9231567382812 C 131.2096252441406 187.3694305419922 132.8063354492188 186.2756195068359 134.429443359375 186.2754669189453 C 134.7199096679688 186.2754364013672 135.0108795166016 186.3104400634766 135.2970733642578 186.3840942382812 C 136.3871612548828 186.6291198730469 137.2437133789062 187.5995483398438 137.4427795410156 188.6886596679688 C 137.5260467529297 189.1212463378906 137.5930328369141 189.6744079589844 138.0811309814453 189.8371276855469 C 138.1392974853516 189.8731994628906 138.1969604492188 189.8886108398438 138.2529602050781 189.8886108398438 C 138.4346313476562 189.8886108398438 138.5989837646484 189.7264404296875 138.7080078125 189.5815734863281 C 138.9376831054688 189.29638671875 138.8343200683594 188.8992004394531 138.7807312011719 188.5709533691406 C 138.5491180419922 187.2042846679688 137.6351318359375 185.9295043945312 136.3268585205078 185.4165344238281 C 135.6988220214844 185.1833648681641 135.0294036865234 184.9620056152344 134.3553161621094 184.9620056152344 C 134.1716613769531 184.9620056152344 133.9877014160156 184.9784393310547 133.8040924072266 185.0155334472656 C 132.1732940673828 185.1332397460938 130.7023162841797 186.1974792480469 129.9299774169922 187.6138916015625 C 129.1595611572266 188.8762512207031 129.0217437744141 190.4170837402344 129.2179412841797 191.8555297851562 C 129.53759765625 193.6815795898438 130.7836608886719 195.3133239746094 132.4642486572266 196.09619140625 C 133.4305572509766 196.5256500244141 134.4829711914062 196.8054809570312 135.5422973632812 196.8054809570312 C 135.8143615722656 196.8054809570312 136.0868072509766 196.7870330810547 136.3584594726562 196.7479248046875 C 137.1288604736328 196.657958984375 137.8791809082031 196.4273071289062 138.5663452148438 196.0665283203125 C 139.3578186035156 195.7267456054688 140.0344543457031 195.1783752441406 140.6431427001953 194.5792846679688 C 141.3408203125 193.8882751464844 141.8231506347656 193.0154418945312 142.2442626953125 192.1378479003906 C 142.8711395263672 190.5089416503906 143.1515502929688 188.7001647949219 142.7706298828125 186.9784240722656 C 142.27490234375 184.0546569824219 140.1378173828125 181.4495849609375 137.3087921142578 180.5068664550781 C 136.1850738525391 180.0642547607422 134.9822998046875 179.8493499755859 133.7783050537109 179.8493499755859 C 131.8947601318359 179.8493499755859 130.0077362060547 180.3749694824219 128.412109375 181.3768310546875 C 127.680908203125 181.8448181152344 126.9430389404297 182.3271789550781 126.3601989746094 182.9789123535156 C 125.5476684570312 183.8948059082031 124.7762756347656 184.8729248046875 124.2843627929688 186.0022277832031 C 124.0441589355469 186.5085144042969 123.7857513427734 187.0119323730469 123.6488952636719 187.5593566894531 C 123.444091796875 188.374755859375 123.1866455078125 189.1834411621094 123.1244201660156 190.026611328125 C 122.7109832763672 193.1829528808594 123.4833068847656 196.4962158203125 125.3648681640625 199.0783386230469 C 125.8558349609375 199.7301025390625 126.3573303222656 200.3837585449219 126.9698486328125 200.9263916015625 C 127.9220886230469 201.758056640625 128.9375305175781 202.5437927246094 130.1003265380859 203.0596313476562 C 130.9186096191406 203.3984375 132.5339660644531 204.3031005859375 136.0474090576172 204.404296875 C 135.8031158447266 204.4883117675781 135.172607421875 204.5464172363281 134.4056243896484 204.5464172363281 C 133.3728179931641 204.5464172363281 132.0924835205078 204.4410552978516 131.1741333007812 204.1516418457031 C 129.3595886230469 203.6922302246094 127.5995788574219 202.9361877441406 126.1017913818359 201.8020935058594 C 124.9332427978516 200.9139404296875 123.8211517333984 199.9234313964844 122.9674682617188 198.7213745117188 C 121.8209228515625 197.1671142578125 120.9835205078125 195.3851013183594 120.5404052734375 193.5045166015625 C 120.1288757324219 191.9741821289062 120.1097412109375 190.3768920898438 120.1834411621094 188.804443359375 C 120.3719635009766 186.8396301269531 120.9576721191406 184.9140625 121.9003601074219 183.1799011230469 C 122.7530975341797 181.53955078125 124.0355377197266 180.1767272949219 125.4060363769531 178.9574279785156 C 127.2110137939453 177.528564453125 129.3222503662109 176.4547729492188 131.5827941894531 175.9829406738281 C 132.5569458007812 175.7714233398438 133.5522308349609 175.6678619384766 134.5474243164062 175.6678619384766 Z" stroke="none" fill="#fd0000"/></g><path d="M360.945,362.344a8.334,8.334,0,0,1,8.192-8.354c2.743,0,6.295.982,7.4,5.97a7,7,0,0,1-2.328,6.462,6.633,6.633,0,0,1-2.184,1.224,6.306,6.306,0,0,1-3.833.09,5.132,5.132,0,0,1-3.392-4.164,5.389,5.389,0,0,1,.242-2.489,4.2,4.2,0,0,1,4.857-2.674,3.079,3.079,0,0,1,2.26,2.427c.088.456.158,1.039.672,1.21a.581.581,0,0,0,.661-.27c.242-.3.133-.719.077-1.065a4.353,4.353,0,0,0-2.585-3.322,4.934,4.934,0,0,0-2.657-.422,5.215,5.215,0,0,0-4.081,2.737,6.8,6.8,0,0,0-.75,4.468,6.178,6.178,0,0,0,3.419,4.467,7.542,7.542,0,0,0,4.1.686,6.671,6.671,0,0,0,2.326-.718,7.283,7.283,0,0,0,2.187-1.566,7.387,7.387,0,0,0,1.222-1.667,8.191,8.191,0,0,1-15.8-3.028Z" transform="translate(-354.694 -347.904)" fill="#fd0000"/></g></g></svg>